<svg xmlns="http://www.w3.org/2000/svg" xmlns:svg="http://www.w3.org/2000/svg" id="Layer_1" width="128" height="127.75" x="0" y="0" version="1.1" viewBox="0 0 128 127.75" xml:space="preserve"><metadata id="metadata17"/><style id="style2" type="text/css"/><g id="g4502" transform="matrix(0.82964953,0,0,0.82964953,213.90048,-27.194663)"><path id="path4498" fill="#fff" stroke-width="1.117" d="m -103.7717,130.76443 -55.8393,55.72762 c -0.22336,0.22336 -0.55839,0.33504 -0.78175,0.22336 l -76.27648,-20.43718 c -0.33503,-0.11168 -0.55839,-0.33504 -0.55839,-0.5584 l -20.54886,-76.1648 c -0.11168,-0.335036 0,-0.558393 0.22336,-0.78175 l 55.83929,-55.727616 c 0.22336,-0.223357 0.5584,-0.335036 0.78175,-0.223357 l 76.27648,20.437181 c 0.33504,0.111679 0.55839,0.335036 0.55839,0.558393 l 20.43718,76.164799 c 0.22336,0.33504 0.11168,0.5584 -0.11167,0.78175 z"/><path id="path4" d="m -111.81418,128.56886 -50,49.9 c -0.2,0.2 -0.5,0.3 -0.7,0.2 l -68.3,-18.3 c -0.3,-0.1 -0.5,-0.3 -0.5,-0.5 l -18.4,-68.200005 c -0.1,-0.3 0,-0.5 0.2,-0.7 l 50,-49.9 c 0.2,-0.2 0.5,-0.3 0.7,-0.2 l 68.3,18.3 c 0.3,0.1 0.5,0.3 0.5,0.5 l 18.3,68.200005 c 0.2,0.3 0.1,0.5 -0.1,0.7 z m -67,-54.300005 -67.1,17.9 c -0.1,0 -0.2,0.2 -0.1,0.3 l 49.1,49.000005 c 0.1,0.1 0.3,0.1 0.3,-0.1 l 18,-67.000005 c 0.1,0 -0.1,-0.2 -0.2,-0.1 z"/></g></svg>